<svg xmlns="http://www.w3.org/2000/svg" width="537.615" height="281.83"><path d="m15.549 158.113-1.756 1.646c-1.023.96-1.523 1.418-1.915 3.27-.117.555-.084.533-.115.801-.03.268-.068.605-.11 1.015-.083.82-.19 1.93-.312 3.248-.246 2.636-.557 6.108-.873 9.717-.632 7.217-1.277 14.904-1.46 17.672-.138 2.113-.921 11.478-1.716 20.486-.798 9.031-1.568 18.217-1.734 20.723-.145 2.182-.863 10.866-1.58 19.027-.72 8.181-1.44 16.656-1.613 19.027-.16 2.198-.71 8.918-1.213 14.82-.503 5.912-1.096 12.95-1.322 15.658-.11 1.313-.237 2.575-.346 3.506-.054.465-.106.85-.142 1.091l-.033.214c-.002.008-.083.076.164-.51-.49 1.161-.385 1.401-.46 1.986a30.006 30.006 0 0 0-.176 1.871 32.15 32.15 0 0 0-.071 1.904c-.003.605-.044 1.014.131 1.893.122.614.583 2.06 1.712 2.985 1.129.924 2.195 1.12 3.204 1.272 2.02.305 4.616.32 9.645.39 4.977.07 13.886.311 19.68.538 5.844.228 20.05.767 31.58 1.201 11.53.434 27.714 1.049 35.96 1.36 5.076.193 8.837.359 11.318.5.237.014.307.025.521.039v.028c-.046 2.336-.179 6.157-.417 11.999-.342 8.4-.694 17.745-.785 20.876-.086 3.004-.479 13.927-.866 24.168-.377 9.933-.575 14.736-.5 17.557.038 1.41.045 2.386.598 3.676.554 1.29 1.892 2.24 2.124 2.392.466.305 1.257.634 1.887.757.63.123 1.16.148 1.81.159 1.3.02 3.129-.048 6.398-.181 6.567-.268 34.616-.358 47.376-.132 3.31.058 12.883.291 21.194.516 32.165.87 53.204 1.203 101.703 1.613 8.317.07 28.197.245 44.177.39 15.99.144 36.045.276 44.611.29 4.256.008 8.26.035 11.27.077 1.504.02 2.758.046 3.659.071.45.011.816.028 1.059.039.242.011.557.068.099-.011.867.15.667.068.932.076.266.008.598.014 1.01.023.823.014 1.964.028 3.385.038 2.843.02 6.814.035 11.56.044 9.492.02 22.072.02 34.85 0 25.557-.04 51.462-.13 55.87-.29 2.03-.075 3.561-.153 4.712-.253.576-.05 1.048-.104 1.52-.186.236-.041.468-.088.78-.182.31-.093.678-.107 1.486-.779l-1.13.642c-.088.031.183.1 1.185-.483 1.001-.583 1.799-1.905 2.03-2.683l.055-.18.033-.182c.536-2.786-.215-5.099-.85-7.1-.636-2-1.258-3.78-1.389-4.79l-.038-.268-.072-.258c-.426-1.51-.817-2.992-1.092-4.12a41.555 41.555 0 0 1-.312-1.366c-.067-.324-.05-.817-.05-.05 0 .52.052-.497.17-1.377.12-.88.284-2.004.467-3.122.978-5.976.904-8.043-.423-13.381-.584-2.353-1.577-6.915-2.15-9.892-.745-3.872-1.203-6.117-2.096-8.033-1.81-3.88-6.16-10.021-9.228-13.211-.967-1.005-1.323-1.486-1.394-1.64-.071-.155-.168-.332-.066-1.531l.023-.247-.011-.252c-.062-1.234-.186-2.07-.176-2.365.011-.294-.11.086-.06.033l.186-.203.154-.225c.615-.9 1.276-2.221 1.596-3.665.321-1.445.497-3.1.79-5.964.256-2.502.263-4.271-.006-6.288-.226-1.703-.399-3.024-1.13-4.477-.73-1.452-1.98-2.488-3.05-3.198-.48-.318-.5-.316-.977-.9-.477-.584-1.284-1.73-2.628-3.742-2.766-4.14-2.809-4.18-3.599-6.639-.427-1.326-1.18-4.285-1.53-6.062-.505-2.563-1.38-6.184-2.24-9.448-.429-1.632-.854-3.165-1.228-4.427-.374-1.263-.602-2.092-1.026-3.024-.445-.976-.98-1.844-1.92-3.478a434.03 434.03 0 0 0-3.386-5.772c-2.458-4.12-5.668-9.628-7.055-12.103l-4.395-7.83c-.825-1.467-1.193-2.2-1.3-2.49-.108-.29-.115-.336-.187-1.24-.152-1.923-.644-3.742-1.574-6.112-.628-1.597-1.373-3.722-1.257-3.33-.6-2.017-1.74-3.783-3.879-6.82-1.948-2.765-3.305-4.055-5.25-5.168-1.136-.65-1.55-1.007-2.283-1.91-2.932-3.614-7.1-6.491-13.036-9.376-2.667-1.296-4.366-1.765-6.48-1.87-1.568-.08-3.734-.003-5.491.164-2.686.254-1.338.411-3.5-.318-1.307-.442-2.68-.878-3.583-1.109.9.23-.416-.303-3.945-3.637l-.006-.006h-.006c-3.418-3.208-6.248-5.828-9.815-7.665-3.557-1.831-7.68-2.653-12.921-2.557-6.736-.101-8.555-.032-11.977.472-3.35.494-4.945.093-8.367-1.673l-.192-.1-.192-.076a946.663 946.663 0 0 0-10.084-3.78c-2.968-1.078-2.05-.507-3.912-2.277-1.519-1.444-3.084-2.748-5.196-3.325-2.112-.576-4.057-.425-6.897-.214-2.066.154-6.383.297-9.233.297-2.942 0-4.608.155-5.492-.335l-.176-.099-.192-.077c-.672-.282-1.951-1.068-2.81-1.794-1.417-1.2-1.524-1.373-4.015-5.404a102.913 102.913 0 0 0-2.43-3.747c-.74-1.086-1.054-1.678-1.96-2.595-2.41-2.443-5.373-3.712-8.646-4.236-1.647-.264-3.36-.233-5.514-.006.053-.006-1.213.06-2.815.088-1.601.028-3.747.048-6.276.06-5.06.025-11.655.02-18.572-.011-13.833-.059-29.011-.22-35.766-.428-4.76-.147-13.415-.384-19.264-.527a2096.31 2096.31 0 0 1-21.446-.658c-6.01-.221-15.74-.515-21.677-.659-5.9-.142-14.97-.39-20.13-.548-11.765-.36-13.788-.384-68.296-.757a6540.32 6540.32 0 0 1-32.03-.291c-4.135-.05-7.514-.098-9.887-.143a283.842 283.842 0 0 1-2.765-.06c-.321-.008-.569-.02-.72-.028-.15-.008-.602-.124.215.044-1.19-.245-1.236-.14-2.074-.176a189.09 189.09 0 0 0-3.226-.093c-2.586-.06-5.96-.11-9.53-.132zm7.588 9.97c6.309 0 20.031.138 49.515.405 7.232.066 22.096.174 33.045.247 23.65.159 50.428.573 60.796.933 4.185.145 12.241.38 17.947.527 5.67.145 17.558.502 26.379.79 32.471 1.06 38.514 1.17 68.62 1.24l29.807.065.351.181c1.303.665 1.421.714 1.882 1.224.462.51 1.337 1.803 2.963 4.411 2.86 4.588 3.983 6.002 5.893 7.577 2.534 2.09 3.978 2.962 6.265 3.83 5.36 2.034 10.136.59 13.36.812l.142.006h.143c2.618-.023 4.978-.438 6.705-.412 1.727.025 2.372.226 3.017.999l.126.148.137.137c1.53 1.482 2.67 2.57 4.582 3.27.549.201 4.69 1.755 8.992 3.374 4.315 1.624 8.378 3.138 9.48 3.522 2.953 1.027 5.654.52 7.819.066l-.241.044c3.874-.549 4.246-.555 10.654-.39 5.026.132 10.34 1.072 15.9 7.495l.121.137.132.126a83.6 83.6 0 0 0 3.374 3.034c.503.425.957.793 1.372 1.108.414.315.57.524 1.448.922 1.145.519 2.714 1.037 4.433 1.591 2.525.815 5.447 1.493 8.795.735l-.521.083c4.464-.363 3.746-.514 6.918 1.086 5.03 2.536 6.926 3.913 9.662 6.918 1.597 1.755 2.997 3.01 4.664 3.852.52.263.438.211.625.4.187.19.65.77 1.47 1.932 2.107 2.984 1.893 2.598 3.808 7.45.994 2.519 1.166 3.174 1.322 4.73.231 2.3.791 3.976 2.31 6.61.847 1.47 3.042 5.36 4.828 8.56 1.816 3.254 4.282 7.53 5.585 9.672 5.187 8.528 6.26 10.548 6.831 12.312.602 1.858 2.327 8.82 3.495 14.38 1.387 6.602 2.401 9.013 6.266 14.83 1.5 2.26 2.419 3.614 3.259 4.67.84 1.055 1.812 1.913 2.66 2.435.074.046.128.092.204.143.062.316.13.648.186 1.015.219 1.449.21 1.884-.143 5.13-.217 2-.396 3.093-.537 3.588-.14.495-.157.511-.631 1.158v.006c-.378.515-1.106 1.912-1.257 3.045-.15 1.133-.12 2.157-.12 4.131 0 2.398-.042 3.892.428 5.596.47 1.705 1.705 3.127 2.699 4.01.39.347 1.537 1.518 2.096 2.168.557.649 2.151 2.846 3.528 4.91 1.376 2.065 2.76 4.423 2.858 4.637-.095-.207.294.873.62 2.189.326 1.315.712 3.064 1.114 5.064.738 3.675 1.675 7.993 2.161 9.925.2.792.383 1.645.51 2.32.129.676.171 1.459.171.96 0-.488-.065.707-.203 1.806a168.72 168.72 0 0 1-.538 3.917c-.876 5.849-.838 6.748 1.103 13.464.511 1.768.9 3.297 1.245 4.647-1.233.033-2.191.065-4.647.088-7.276.066-20.675.089-45.23.115-14.727.017-28.13.022-37.852.017-4.861-.003-8.806-.008-11.532-.017-1.364-.003-2.42-.011-3.133-.017-.357-.003-.629-.003-.796-.006-.077-.001-.127-.006-.142-.006h-.012c-.09-.006-.147-.008-.214-.011a32.425 32.425 0 0 0-.493-.017c-.4-.008-.963-.017-1.685-.028-1.444-.02-3.513-.038-6.062-.06-5.099-.046-12.11-.1-19.812-.143-34.593-.196-110.218-.882-134.244-1.218-17.761-.249-26.723-.44-56.873-1.224-17.36-.452-52.007-.61-61.509-.258l-1.876.072.082-3.857c.093-4.225.41-13.541.697-20.597.289-7.091.597-15.55.686-18.895.086-3.226.386-11.76.67-18.868.452-11.387.907-12.903-.155-15.445a6.116 6.116 0 0 0-1.07-1.717c-.432-.5-.823-1.022-2.046-1.481-1.027-.386-.825-.213-.965-.23a9.04 9.04 0 0 0-.396-.04 52.263 52.263 0 0 0-.982-.07c-.794-.052-1.884-.113-3.22-.181-2.672-.138-6.321-.31-10.419-.489-8.196-.356-18.177-.745-25.622-.982-2.571-.082-11.916-.434-20.668-.784-22.72-.91-32.811-1.256-42.53-1.443l-4.769-.094c.068-.96.14-1.974.247-3.363.275-3.544.663-8.294 1.103-13.387.882-10.21 1.725-20.2 1.887-22.456.144-2.002.857-10.611 1.575-18.923.72-8.326 1.494-17.55 1.728-20.596.225-2.935 1.069-12.997 1.866-22.26.798-9.275 1.633-19.328 1.865-22.466a971 971 0 0 1 1.245-14.946c.201-2.21.381-4.11.533-5.59.762-.017.689-.033 2.14-.033zm303.205 18.895c.046.025.086.008.132.033.082.036.148.113.23.148z" style="color:#f8d144;font-style:normal;font-variant:normal;font-weight:400;font-stretch:normal;font-size:medium;line-height:normal;font-family:sans-serif;font-variant-ligatures:normal;font-variant-position:normal;font-variant-caps:normal;font-variant-numeric:normal;font-variant-alternates:normal;font-feature-settings:normal;text-indent:0;text-align:start;text-decoration:none;text-decoration-line:none;text-decoration-style:solid;text-decoration-color:#000;letter-spacing:normal;word-spacing:normal;text-transform:none;writing-mode:lr-tb;direction:ltr;text-orientation:mixed;dominant-baseline:auto;baseline-shift:baseline;text-anchor:start;white-space:normal;shape-padding:0;clip-rule:nonzero;display:inline;overflow:visible;visibility:visible;opacity:1;isolation:auto;mix-blend-mode:normal;color-interpolation:sRGB;color-interpolation-filters:linearRGB;solid-color:#000;solid-opacity:1;vector-effect:none;fill:#444;fill-opacity:1;fill-rule:nonzero;stroke:none;stroke-width:7.43237;stroke-linecap:butt;stroke-linejoin:miter;stroke-miterlimit:4;stroke-dasharray:none;stroke-dashoffset:0;stroke-opacity:1;color-rendering:auto;image-rendering:auto;shape-rendering:auto;text-rendering:auto;enable-background:accumulate" transform="translate(11.24 -148.113)"/></svg>