<svg xmlns="http://www.w3.org/2000/svg" width="513.481" height="327.293"><path d="m198.873 160.381-206.213.022.484 4.072c.178 1.505.24 2.676.517 4.47l-.043-.544c.006 2.238 1.15 3.606 1.78 4.443.623.829.946 1.315 1.043 1.581.973 2.878.96 2.368.56 4.185-.393 1.785-.653 2.988-.667 4.346-.014 1.358.394 2.724.833 3.717.723 1.63 1.925 3.45 3.276 5.454 1.473 2.184 2.15 3.243 2.383 3.722.233.479.258.65.516 2.027.254 1.353.272 1.608.13 2.276-.143.667-.647 1.976-1.754 4.394-1.812 3.958-2.211 5.439-2.786 10.827a18.71 18.71 0 0 1-1.033 4.454c-.555 1.553-1.69 4.92-2.576 7.643a92.738 92.738 0 0 1-1.162 3.372c-.16.427-.297.773-.371.947-.038.087-.066.134-.033.07.017-.032.045-.092.146-.242.1-.151.072-.391 1.038-1.006-1.203.766-1.319 1.396-1.474 1.764-.155.368-.21.598-.258.812-.097.428-.133.76-.167 1.114a23.893 23.893 0 0 0-.091 2.237c0 .771.024 1.53.091 2.238.034.354.07.68.167 1.108.048.214.103.45.258.817.155.368.264.992 1.463 1.76-.953-.61-.837-.765-.882-.872.383 1.12.858 1.944 1.57 3.06.781 1.224 1.8 2.678 3.066 4.384 2.298 3.094 5.943 10.212 7.32 14.393.899 2.726.848 2.368.85 4.685.006 4.127.8 7.013 3.298 12.005 1.993 3.983 1.799 3.326 2.162 5.954.93 6.726 2.092 9.254 7.47 15.647 5.227 6.212 5.554 6.615 6.509 8.552 1.032 2.092 1.085 2.36 2.34 8.751a329.83 329.83 0 0 0 1.355 6.573c.411 1.843.412 1.9.253 4.109-.318 4.41-.088 6.34 1.474 11.634 2.184 7.405 3.608 10.078 7.691 14.603 1.997 2.213 2.952 4.076 3.442 6.492.316 1.553.895 3.312 1.544 4.793 1.757 4.004 1.87 4.921 1.608 11.693-.088 2.291.138 3.843 1.157 7.368.933 3.23 1.031 3.832 1.36 7.886.331 4.073.64 5.875 1.464 8.53 1.273 4.11 1.243 3.929.451 9.3-1.284 8.717-1.62 10.838-1.377 12.984.359 3.163 1.868 5.708 3.733 8.154 1.87 2.452 4.631 4.502 7.434 5.89l2.21 1.097 38.958.167c20.982.089 84.836.18 141.937.199 92.24.032 104.516 0 110.854-.393 1.844-.114 3.674-.205 5.11-.258 1.436-.053 2.878-.017 2.469-.054-.283-.025.418.088 1.081.285a28.98 28.98 0 0 1 2.157.743l2.221.865 3.007 2.943c1.86 1.82 4.214 4.372 4.69 4.975.7.887 1.844 2.086 2.9 3.216l-.017.108 1.253 1.27c1.203 1.22 1.724 1.88 2.862 2.624.568.372 1.433.715 2.151.807.718.092 1.15.027 1.452.006.86-.061 2.05-.316 3.018-.86.968-.545 1.641-1.17 2.452-1.942.863-.821 1.742-2.464 1.845-3.873.103-1.41-.15-2.525-.49-3.97-.381-1.628.023-4.32.108-4.49.128-.255 3.096-3.39 3.964-3.873 1.782-.993 2.475-1.222 5.368-1.721 4.2-.725 7.66-2.947 10.042-6.455.533-.784 1.159-1.852 1.576-3.179.418-1.326.798-2.999 1.555-6.282.62-2.689 1.888-5.21 4.658-8.772 3.09-3.975 4.474-6.172 5.513-8.908.662-1.745.912-3.409.903-6.131-.019-5.911-1.524-10.327-5.056-14.69-3.533-4.364-3.952-4.989-4.34-5.964-.514-1.293-.487-3.794 1.511-10.128.811-2.571-.008-1.22 2.076-3.303 1.603-1.601 1.838-1.852 2.738-2.167.9-.315 3.05-.635 7.407-1.103 3.987-.429 8.31-.867 9.294-.947 3.04-.245 6.447-.991 9.09-2.065.876-.356 1.743-.821 3.055-1.517s2.894-1.56 4.491-2.447c3.194-1.776 6.262-3.516 7.772-4.534 2.476-1.67 4.727-4.134 6.266-6.74.967-1.635 1.509-3.445 2.077-5.664 1.31-5.121 1.284-4.993 6.502-10.434 4.003-4.174 6.213-8.017 6.423-12.188.029-.06.202-.154.225-.205.232-.498.286-.8.34-1.07.106-.539.136-.949.166-1.479.06-1.06.075-2.502.075-4.647 0-2.145-.016-3.587-.075-4.647-.03-.53-.06-.946-.167-1.485-.053-.27-.107-.566-.339-1.065-.024-.055-.214-.154-.247-.22.025.066.1.19.113.236.072.237.06.267.06.334-.001-.209-.19-.395-.205-.603-.27-.535-.631-1.321-1.958-1.764 1.215.405 1.597 1.063 1.807 1.398.072.114.062.134.102.216-.17-1.967-.737-3.945-1.914-5.696-1.725-2.565-3.864-4.81-6.433-6.197-3.605-1.944-5.725-3.463-7.477-5.228-1.924-1.939-1.673-1.597-3.243-4.857-2.797-5.806-4.657-8.124-10.44-12.935-4.705-3.915-6.567-6.198-8.875-10.795-2.744-5.467-5.729-9.28-9.654-11.763-1.695-1.072-3.683-1.775-5.906-2.528-1.765-.598-5.293-2.052-7.331-3.034-3.76-1.811-3.25-1.44-5.255-3.448-1.053-1.053-2.516-2.981-2.324-2.651v-.006c.27.462-.008-.035-.193-.544a69.246 69.246 0 0 1-.71-2.081 216.562 216.562 0 0 1-1.964-6.395c-1.392-4.78-2.978-10.073-3.609-12.016-1.634-5.037-1.727-6.42-.871-9.467.149-.53 2.375-5.26 3.087-6.298 1.865-2.716 2.837-5.517 2.792-8.445l-.054-3.308-3.566-4.975c-1.527-2.13-3.454-5.099-3.921-5.943a63.055 63.055 0 0 0-1.038-1.813c-.314-.525-.23-.581-.968-1.441h.005c.867 1.012.39.604.301.365a15.55 15.55 0 0 1-.333-1.016 17.636 17.636 0 0 1-.28-1.103c-.063-.29-.057-.581-.06-.145v-.005c.006-.85-.38-1.792-.817-2.334a3.493 3.493 0 0 0-1.146-.947c-.594-.317-.869-.344-1.102-.393-.467-.096-.735-.108-1.13-.134-.789-.053-1.943-.09-3.932-.124-3.976-.066-11.226-.108-24.5-.14-26.547-.063-77.166-.07-173.499-.059zm-183.23 9.628c10.185-.003 24.893 0 43.019.006 36.251.011 86.187.032 141.05.032 79.643 0 129.53.014 159.525.065 14.998.024 25.027.059 31.304.102 3.006.022 5.053.044 6.46.07.258.686.462 1.37.925 2.081.187.287.93 1.538 1.41 2.41.79 1.44 2.371 3.773 3.963 6.013 1.378 1.938 2.051 2.957 2.163 3.174.111.216-.042-.568-.043.134-.001.59-.283 1.675-1.426 3.34-1.556 2.267-3.117 5.506-3.931 8.144-1.448 4.69-1.118 9.405.796 15.302.532 1.64 2.16 7.07 3.539 11.806.698 2.4 1.394 4.695 1.952 6.487.28.895.525 1.665.726 2.27.202.604.233.819.57 1.522 1.319 2.747 3.618 5.188 6.024 7.196 3.158 2.636 8.665 5.07 14.179 6.95 4.128 1.407 4.78 1.784 6.675 3.775.868.913 3.001 4.118 4.114 6.509 2.171 4.663 5.866 9.02 10.892 13.199 5.184 4.31 5.532 4.7 7.75 9.23 3.124 6.374 6.392 9.869 12.49 13.355 3.12 1.783 5.643 4.534 5.965 5.25.044.097.51 1.961.667 4.039.157 2.078.16 4.554-.028 6.75-.08.948-.186 1.934-.285 2.727-.099.793-.26 1.596-.193 1.34-.412 1.576-1.107 2.746-3.798 5.518-5.472 5.638-7.216 8.514-8.745 14.259-1.066 4.001-.941 3.82-3.233 6.088-1.429 1.415-1.976 1.759-7.573 4.884a341.683 341.683 0 0 1-4.916 2.695c-1.392.746-2.679 1.38-2.544 1.323-1.1.47-4.437 1.266-6.54 1.436-2.928.236-7.098.68-10.704 1.113-1.803.217-3.456.43-4.75.614-.647.092-1.2.179-1.662.258-.46.079-.596.041-1.393.322-2.671.943-5.003 2.801-7.24 5.196-1.72 1.843-2.656 3.423-3.442 5.793-1.222 3.685-2.226 7.742-2.49 10.655v.006c-.161 1.782.02 3.47.554 5.244.834 2.774 2.189 4.953 5.271 8.65 2.933 3.516 3.3 4.262 3.787 7.588.342 2.343.348 2.275.118 3.561-.292 1.632-1.41 3.953-4.045 7.288-4.176 5.288-6.04 9.074-7.213 14.732-.335 1.616-.885 3.756-.833 3.599-.163.499-2.024 2.718-2.695 3.065.455-.235-.047.011-.5.13-.453.12-1.038.248-1.555.338-5.273.92-9.353 2.925-12.704 6.401-2.75 2.852-4.183 6.073-4.335 9.838-.003.072.02.127.016.199-.016-.02-.027-.03-.043-.049-1.347-1.668-3.512-3.94-5.599-6.013a90.476 90.476 0 0 0-2.91-2.78c-.86-.78-1.058-1.194-2.495-1.926-1.193-.608-2.47-1.045-4.169-1.668-1.765-.647-3.338-1.166-5.438-1.27-2.1-.102-4.617.074-9.595.388-5.802.366-19.65.41-147.064.274-50.235-.053-85.437-.112-108.164-.182a5766.805 5766.805 0 0 1-25.049-.119c-2.72-.022-4.738-.041-6.083-.064-.617-.011-1.056-.022-1.377-.032.04-.022-.922-.456-1.84-1.087-1.006-.693-2.066-1.621-2.253-1.834-.24-.272-.915-1.25-1.415-2.157s-.891-2.041-.834-1.77c.135.638 0-.16.189-1.801s.563-4.286 1.172-8.391c.877-5.904.72-9.015-.683-13.527-.76-2.448-.86-3.04-1.183-7.02-.334-4.117-.646-5.928-1.581-9.208-1.115-3.908-1.085-3.635-.775-7.686.334-4.366-.677-8.91-2.802-13.608-.084-.186-.502-1.504-.581-1.936-.535-2.915-1.747-5.96-3.453-8.337-.763-1.063-2.075-2.623-3.287-3.986-2.287-2.573-2.944-3.89-4.62-9.455l-1.124-3.723-.005-4.625c-.005-4.936-.138-6.151-.963-9.504-.44-1.783-1.078-4.837-1.356-6.47-.597-3.52-1.22-6.19-2.77-8.989-1.55-2.798-3.788-5.52-7.643-10.09-1.979-2.346-3.084-3.765-3.657-4.695-.573-.93-.717-1.357-.99-2.555-.254-1.115-.567-2.938-.624-3.47-.311-2.903-1.138-5.245-3.249-9.38-2.117-4.148-2.162-4.258-2.162-7.874 0-2.471-.276-4.015-1.344-7.25-1.686-5.105-5.005-11.892-7.837-15.766-2.248-3.073-3.456-4.862-3.959-5.846-.503-.984-.47-.996-.479-2.087.002.207.207-1.408.802-3.448.595-2.04 1.51-4.772 2.705-8.057 1.534-4.216 2.433-7.858 2.437-11.059.002-1.474.04-1.556 1.791-5.41 1.714-3.772 2.715-6.322 2.705-9.053-.005-1.538-.314-2.942-.677-4.475-.364-1.533-.516-2.64-1.463-4.238-.526-.886-1.632-2.544-2.776-4.228-1.043-1.536-2.345-3.845-2.286-3.711-.259-.587-.143-.44-.123-.054.02.386-.022.251.172-.522.823-3.275.885-5.822.172-8.579-.421-1.628-1.22-2.468-1.786-3.657 2.685-.006 6.42-.008 11.333-.011zm469.842 142.717c0 .067.014.092-.059.334-.008.03-.062.118-.075.156.008-.168.134-.321.134-.49zm-.172.57c-.042.112-.05.19-.183.399-.21.334-.591.993-1.807 1.398 1.35-.45 1.726-1.263 1.99-1.796z" style="color:#000;font-style:normal;font-variant:normal;font-weight:400;font-stretch:normal;font-size:medium;line-height:normal;font-family:sans-serif;font-variant-ligatures:normal;font-variant-position:normal;font-variant-caps:normal;font-variant-numeric:normal;font-variant-alternates:normal;font-feature-settings:normal;text-indent:0;text-align:start;text-decoration:none;text-decoration-line:none;text-decoration-style:solid;text-decoration-color:#000;letter-spacing:normal;word-spacing:normal;text-transform:none;writing-mode:lr-tb;direction:ltr;text-orientation:mixed;dominant-baseline:auto;baseline-shift:baseline;text-anchor:start;white-space:normal;shape-padding:0;clip-rule:nonzero;display:inline;overflow:visible;visibility:visible;opacity:1;isolation:auto;mix-blend-mode:normal;color-interpolation:sRGB;color-interpolation-filters:linearRGB;solid-color:#000;solid-opacity:1;vector-effect:none;fill:#444;fill-opacity:1;fill-rule:nonzero;stroke:none;stroke-width:7.28629;stroke-linecap:butt;stroke-linejoin:miter;stroke-miterlimit:4;stroke-dasharray:none;stroke-dashoffset:0;stroke-opacity:1;color-rendering:auto;image-rendering:auto;shape-rendering:auto;text-rendering:auto;enable-background:accumulate" transform="translate(17.34 -150.378)"/></svg>