<svg xmlns="http://www.w3.org/2000/svg" width="308.656" height="359.009"><path d="M100.6 154.178c-4.373-1.161-10.357.82-11.164 5.784-.69 3.87-.193 7.805-.122 11.702-1.323 3.146-5.226 2.776-8.015 2.476-6.855-.291-13.729-1.03-20.592-.418-14.867-.054-29.731-.418-44.598-.543-4.003.648-4.245 5.911-2.568 8.799 1.4 3.745 1.624 7.805 2.955 11.57-.317 4.149-2.185 8.222-1.175 12.417.265 6.077-.041 12.182.322 18.245 1.11 5.44 3.051 10.67 4.317 16.068 2.507 6.945 5.682 13.994 5.144 21.555 1.066 19.078.583 41.146 4.542 57.207.76 3.392 3.402 5.985 4.03 9.381.573 2.885.453 5.876 1.234 8.724-.435 5.49.321 11.31-1.947 16.474-2.513 3.941-7.989 5.39-9.46 10.063-.495 4.212 3.381 7.065 4.446 10.858 1.459 3.261 4.832 5.182 8.182 6.004 3.346 2.568 2.684 7.223 2.519 10.923-.507 28.625-.637 57.255-1.233 85.878-1.282 3.54 3.17 6.044 6.225 5.424 12.434-.437 24.88-.053 37.319-.362 53.3-.552 106.603-.568 159.903-1.07 4.038-.47 9.071 1.184 12.121-2.387 2.953-2.932.953-6.732.542-10.11-.172-3.986-.112-8.246-2.507-11.663-2.79-5.242-7.726-9.124-13.314-11.004-3.625-1.965-6.899-4.565-9.932-7.334-2.24-2.784-2.58-6.876-5.753-8.949-3.015-2.577-6.964-3.545-10.433-5.27-7.52-6.142-12.515-7.003-20.134-12.826-2.645-4.151.667-9.123-1.1-13.5-.67-4.565.658-9.128.294-13.704.411-4.038 4.091-7.378 3.011-11.637-.824-4.187-4.136-7.351-7.643-9.5-2.037-3.129 1.377-5.904 2.605-8.576 1.48-5.541 7.135-8.056 11.726-10.587 3.874-2.172 6.84-6.356 6.386-10.948-.11-8.042-.756-16.072-.79-24.119 5.198-10.011 15.498-15.567 23.178-23.384 7.25-6.756 13.462-14.511 19.505-22.33 7.716-8.686 16.95-16.483 28.108-20.244 8.405-3.37 16.697-7.475 23.566-13.453 2.806-3.598-1.332-9.232-5.615-8.273-3.474.535-7.42.388-9.81-2.547-3.581-2.66-8.303-2.216-12.395-1.301-7.674 3.022-18.562-2.683-23.14-2.068-7.59.948-10.873 6.298-18.654 6.77-4.454.344-7.019-3.93-10.292-6.15-10.14-8.057-28.909-11.042-36.804-18.186-2.347-1.788-5.338-2.188-7.968-3.43-4.863-1.566-10.121-1.915-15.168-1.236-2.93.435-5.415 2.14-7.512 4.13-8.066-.103-20.338-2.094-37.254-9.643-1.657-4.443-2.995-9.672-4.918-14.057-1.419-4.874-2.292-9.929-4.027-14.696-1.285-2.36-3.452-4.386-6.143-4.948zm-1.08 8.694c3.305 2.55 1.908 7.244 3.764 10.547 1.971 5.554 3.86 16.64 5.022 17.96-.285 4.207 25.915 16.37 46.946 15.137 8.982-3.917 12.319-4.506 23.931-.59 15.525 12.318 20.453 13.342 31.79 16.09 3.566.817 6.503 2.818 8.987 5.457 5.295 4.572 14.517 5.994 20.548 2.893 9.664-6.526 18.776-4.427 29.462-3.69 3.784.197 7.983-1.925 11.423.346 3.833 1.722 1.21 4.713-1.651 5.292-8.13 3.887-17.109 6.427-24.017 12.475-8.744 6.568-15.759 15.064-22.308 23.738-7.72 9.373-17.215 17.025-26.352 24.933-3.547 3.625-7.144 7.47-9.134 12.196-1.76 6.358.045 12.936-.169 19.396-.587 3.861 2.24 9.51-2.128 11.629-4.748 3.146-10.807 5.26-13.33 10.812-1.81 3.525-3.636 7.056-5.432 10.578-1.358 3.468-1.025 7.768 1.739 10.468 1.87 2.3 5.83 3.156 5.978 6.584-.48 2.456-2.338 4.486-2.541 7.075-.701 3.328.134 6.72-.522 10.05-.722 4.827 1.281 9.6.225 14.408-.607 13.225 18.908 24.238 28.11 26.955 8.891 2.11 8.398 9.587 14.079 13.526 4.285 3.758 9.127 6.886 14.411 9.029 3.773 2.245 6.19 6.506 6.398 10.867 1.939 3.579-1.935 7.503-5.47 5.621-63.923.524-127.846.694-191.769 1.094-3.001-3.01-.015-7.67-1.098-11.383.208-26.507.979-53.01.833-79.52-.604-5.384-4.953-9.646-9.928-11.319-2.51-1.503-4.698-5.477-2.168-7.9 6.105-3.863 9.057-11.517 8.417-18.566.017-7.44-.06-15.083-2.47-22.198-7.518-17.982-6.113-38.788-7.101-57.268-.099-7.246-.328-14.71-3.276-21.46-2.05-5.272-3.803-10.661-5.098-16.162-1.214-3.596-1.867-7.432-1.353-11.216-.018-5.293-.23-10.584-.152-15.877 2.257-5.159 1.26-11.107-1.079-16.028-.066-4.317 5.531-2.705 8.284-2.71 16.89.195 33.79.148 50.67.7 4.531-.2 9.921.018 13.241-3.625 2.852-3.11 3.438-7.619 2.626-11.62-.071-1.684 1.666-3.041 1.663-4.724zm-58.235 316.64.506.363z" style="color:#000;font-style:normal;font-variant:normal;font-weight:400;font-stretch:normal;font-size:medium;line-height:normal;font-family:sans-serif;font-variant-ligatures:normal;font-variant-position:normal;font-variant-caps:normal;font-variant-numeric:normal;font-variant-alternates:normal;font-feature-settings:normal;text-indent:0;text-align:start;text-decoration:none;text-decoration-line:none;text-decoration-style:solid;text-decoration-color:#000;letter-spacing:normal;word-spacing:normal;text-transform:none;writing-mode:lr-tb;direction:ltr;text-orientation:mixed;dominant-baseline:auto;baseline-shift:baseline;text-anchor:start;white-space:normal;shape-padding:0;clip-rule:nonzero;display:inline;overflow:visible;visibility:visible;opacity:1;isolation:auto;mix-blend-mode:normal;color-interpolation:sRGB;color-interpolation-filters:linearRGB;solid-color:#000;solid-opacity:1;vector-effect:none;fill:#444;fill-opacity:1;fill-rule:nonzero;stroke:none;stroke-width:6.59326;stroke-linecap:butt;stroke-linejoin:miter;stroke-miterlimit:4;stroke-dasharray:none;stroke-dashoffset:0;stroke-opacity:1;color-rendering:auto;image-rendering:auto;shape-rendering:auto;text-rendering:auto;enable-background:accumulate" transform="translate(-2.561 -143.855)"/></svg>