<?xml version="1.0" encoding="UTF-8" standalone="no"?>
<svg
   xmlns:dc="http://purl.org/dc/elements/1.1/"
   xmlns:cc="http://creativecommons.org/ns#"
   xmlns:rdf="http://www.w3.org/1999/02/22-rdf-syntax-ns#"
   xmlns:svg="http://www.w3.org/2000/svg"
   xmlns="http://www.w3.org/2000/svg"
   xmlns:sodipodi="http://sodipodi.sourceforge.net/DTD/sodipodi-0.dtd"
   xmlns:inkscape="http://www.inkscape.org/namespaces/inkscape"
   width="320.75772"
   height="352.37823"
   viewBox="0 0 320.75772 352.37823"
   version="1.1"
   id="svg2216"
   inkscape:version="1.0.1 (3bc2e813f5, 2020-09-07)"
   sodipodi:docname="wisconsin-thick-outline-444444.svg">
  <defs
     id="defs2210" />
  <sodipodi:namedview
     id="base"
     pagecolor="#ffffff"
     bordercolor="#666666"
     borderopacity="1.0"
     inkscape:pageopacity="0.0"
     inkscape:pageshadow="2"
     inkscape:zoom="0.7"
     inkscape:cx="327.80695"
     inkscape:cy="146.11006"
     inkscape:document-units="px"
     inkscape:current-layer="layer1"
     showgrid="false"
     units="px"
     inkscape:window-width="1366"
     inkscape:window-height="705"
     inkscape:window-x="-8"
     inkscape:window-y="-8"
     inkscape:window-maximized="1"
     fit-margin-top="10"
     fit-margin-left="10"
     fit-margin-bottom="20"
     fit-margin-right="10"
     inkscape:showpageshadow="false"
     inkscape:document-rotation="0" />
  <metadata
     id="metadata2213">
    <rdf:RDF>
      <cc:Work
         rdf:about="">
        <dc:format>image/svg+xml</dc:format>
        <dc:type
           rdf:resource="http://purl.org/dc/dcmitype/StillImage" />
        <dc:title></dc:title>
      </cc:Work>
    </rdf:RDF>
  </metadata>
  <g
     inkscape:label="Layer 1"
     inkscape:groupmode="layer"
     id="layer1"
     transform="translate(-3.4802779,-144.26751)">
    <text
       xml:space="preserve"
       style="font-style:normal;font-variant:normal;font-weight:normal;font-stretch:normal;font-size:19.7556px;line-height:1.25;font-family:Pacifico;-inkscape-font-specification:Pacifico;font-variant-ligatures:normal;font-variant-position:normal;font-variant-caps:normal;font-variant-numeric:normal;font-variant-alternates:normal;font-feature-settings:normal;text-indent:0;text-align:start;text-decoration:none;text-decoration-line:none;text-decoration-style:solid;text-decoration-color:#000000;letter-spacing:0px;word-spacing:0px;text-transform:none;writing-mode:lr-tb;direction:ltr;text-orientation:mixed;dominant-baseline:auto;baseline-shift:baseline;text-anchor:start;white-space:normal;shape-padding:0;opacity:1;vector-effect:none;fill:#646464;fill-opacity:1;stroke:none;stroke-width:0.529167;stroke-linecap:butt;stroke-linejoin:miter;stroke-miterlimit:4;stroke-dasharray:none;stroke-dashoffset:0;stroke-opacity:1"
       x="197.2449"
       y="175.12508"
       id="text1039" />
    <path
       style="color:#000000;font-style:normal;font-variant:normal;font-weight:normal;font-stretch:normal;font-size:medium;line-height:normal;font-family:sans-serif;font-variant-ligatures:normal;font-variant-position:normal;font-variant-caps:normal;font-variant-numeric:normal;font-variant-alternates:normal;font-feature-settings:normal;text-indent:0;text-align:start;text-decoration:none;text-decoration-line:none;text-decoration-style:solid;text-decoration-color:#000000;letter-spacing:normal;word-spacing:normal;text-transform:none;writing-mode:lr-tb;direction:ltr;text-orientation:mixed;dominant-baseline:auto;baseline-shift:baseline;text-anchor:start;white-space:normal;shape-padding:0;clip-rule:nonzero;display:inline;overflow:visible;visibility:visible;opacity:1;isolation:auto;mix-blend-mode:normal;color-interpolation:sRGB;color-interpolation-filters:linearRGB;solid-color:#000000;solid-opacity:1;vector-effect:none;fill:#444444;fill-opacity:1;fill-rule:nonzero;stroke:none;stroke-width:6.32806;stroke-linecap:butt;stroke-linejoin:miter;stroke-miterlimit:4;stroke-dasharray:none;stroke-dashoffset:0;stroke-opacity:1;color-rendering:auto;image-rendering:auto;shape-rendering:auto;text-rendering:auto;enable-background:accumulate"
       d="m 117.13702,154.34234 c -13.38587,4.71248 -25.985683,11.61574 -39.816336,15.07434 -6.500138,3.30905 -13.335731,2.47985 -19.637071,-0.48207 -5.950823,0.6465 -13.224852,4.82463 -12.465491,11.76874 -0.605428,11.54892 -0.455114,23.12728 -1.25703,34.66732 -2.595234,5.7875 -10.06692,5.92981 -14.703743,9.43601 -6.529313,2.69251 -8.139201,9.72117 -11.986358,14.82917 -3.632214,4.01214 -5.973908,11.58139 -0.736359,15.3056 4.363531,2.03307 9.241546,6.57253 6.761791,11.84843 -4.266914,4.2878 -4.640807,10.50149 -4.530117,16.21825 -1.90567,4.91032 -1.615491,10.10049 -0.780311,15.14769 0.383953,5.66651 -4.489704,12.01973 0.251538,16.87274 9.565052,15.58027 38.654534,18.70477 42.783454,35.11574 2.206449,6.56718 9.218156,9.50487 13.741886,14.25916 29.316597,22.41344 18.392491,44.8012 23.917267,82.11344 2.35725,6.71618 4.14113,14.87734 12.25577,16.81458 6.50056,0.70684 11.06945,4.24569 13.67657,10.11692 5.26938,4.30855 12.54605,1.9077 18.75201,2.60084 33.97433,-0.0368 67.95251,1.3093 101.92061,0.0729 9.2638,-0.0691 18.52347,-0.39343 27.78706,-0.47726 5.6292,-2.26244 4.90607,-8.80226 5.06693,-13.64571 2.16632,-5.7687 1.58162,-11.71265 -1.88208,-16.71355 -0.52852,-5.02845 -3.10214,-9.58078 -2.90947,-14.68119 0.0144,-6.37247 -2.74467,-12.98287 0.1667,-19.15503 3.03929,-5.16652 3.51785,-11.05467 5.22491,-16.62178 3.38144,-5.49562 2.97119,-11.8735 1.32438,-17.83469 -0.75224,-5.39892 1.61151,-10.69464 3.49651,-15.63374 3.25512,-3.88927 8.26408,-7.98046 6.32756,-13.8114 -2.67558,-5.21055 0.61809,-10.71036 0.88866,-16.06441 2.16273,-8.87521 7.81491,-16.35614 10.9894,-24.86536 4.38508,-9.66839 8.02342,-19.70536 12.42804,-29.32943 0.82215,-8.14114 -10.03911,-8.32614 -12.75711,-1.86701 -9.59269,11.13295 -15.72616,25.09347 -27.17972,34.63127 -3.51926,2.74511 -7.59475,10.96847 -9.9807,10.90069 0.8924,-6.30318 5.25062,-11.32677 7.25784,-17.2528 2.69483,-4.65532 11.07645,-3.49157 11.26808,-10.41755 1.15371,-5.85435 -5.74745,-8.98821 -5.47192,-14.52896 2.57085,-4.21096 4.6175,-12.97672 -2.75676,-13.18877 -2.72815,0.78185 -6.56304,1.93485 -3.33265,-1.75367 2.33538,-5.77165 2.08181,-12.46288 0.61036,-18.40566 -1.7684,-6.5871 -9.15017,-7.07279 -14.06363,-9.76913 0.62608,-6.1829 -4.78471,-11.06806 -10.90942,-11.19013 -6.11417,-1.09674 -12.01439,-4.4394 -18.35096,-3.17373 -11.12402,0.0818 -19.14569,-9.22523 -29.79694,-11.04376 -13.39893,-3.61823 -26.81549,-7.17489 -40.15737,-11.00019 -4.1742,-3.88387 -4.2759,-10.93499 -10.11929,-13.3792 -6.39309,-3.66055 -14.08778,-4.75024 -19.75914,-9.71622 -2.55819,-2.99724 -10.14696,2.56982 -6.47447,-3.55226 3.42582,-5.04801 6.3651,-13.25437 -0.16058,-17.26003 -1.46228,-0.90117 -3.23374,-1.21315 -4.9222,-0.97919 z m 1.12112,7.67028 c -1.09751,6.49026 -6.50928,11.75781 -6.51712,18.41035 1.52731,7.17042 9.2904,5.58034 13.91522,3.0662 5.34916,4.16453 12.4135,5.73594 18.55906,8.81031 5.27786,2.61703 4.23356,10.31482 9.68733,12.89069 5.91396,3.2333 12.84136,3.83793 19.16302,6.03579 10.93259,3.13158 22.24273,5.30072 32.7538,9.68355 6.04134,3.69131 12.43944,6.99271 19.50825,7.95222 5.41597,-0.34508 10.75044,0.19516 15.88345,2.04378 6.03094,0.12246 9.71546,3.56771 9.61166,9.60477 3.181,4.26317 9.68159,3.0893 13.52691,6.56976 1.50149,5.43152 1.79997,11.80844 -1.94068,16.40342 -3.20676,5.58153 1.83695,12.20075 7.95836,11.57381 -1.49534,4.75374 -0.79735,10.5996 3.35861,14.13897 2.99195,6.16839 -8.39646,4.57537 -8.87057,10.91435 -3.48323,8.49461 -10.22072,16.79008 -8.26718,26.51571 2.30607,6.65727 11.9529,5.50662 14.35263,-0.50482 4.94411,-6.74146 10.71566,-12.78034 16.63935,-18.64397 5.13378,-5.91773 8.90252,-12.83779 13.59751,-19.08273 -4.72018,12.53107 -10.93367,24.43525 -16.49305,36.57779 -1.57093,6.74426 -4.02563,13.7932 -3.11853,20.74301 3.12785,6.40468 -4.48464,9.04575 -5.95437,14.37285 -2.02076,6.51554 -4.61524,13.32632 -2.73198,20.21602 2.7028,5.92591 -1.43608,11.10353 -2.96381,16.57906 0.22028,6.72283 -5.03476,12.02492 -5.21158,18.72357 -0.58697,6.68159 1.3468,13.24236 1.22932,19.92496 1.41799,5.02405 2.14699,10.18235 4.20773,15.05576 3.75685,4.53222 -0.88838,9.99653 0.23487,15.06091 -2.18655,5.438 -10.44476,1.10769 -15.10243,2.76426 -41.49897,0.91227 -83.00724,0.12007 -124.50962,-0.0191 -3.38804,-5.16315 -6.10655,-13.07973 -12.87658,-13.51414 -11.196,-2.99286 -9.97315,-13.9681 -11.36202,-28.25859 -0.42453,-14.21436 0.25848,-36.97656 -8.474321,-51.11163 -7.758226,-11.42524 -17.293304,-18.1336 -26.917833,-26.73378 -2.494983,-4.42828 -4.928504,-9.68573 -9.595433,-12.70182 -9.611618,-3.82867 -17.969897,-14.90274 -25.983871,-15.70664 -4.943459,-1.93451 -7.971465,-6.74787 -11.202099,-10.67405 0.04508,-5.75905 2.11981,-11.83889 0.790603,-17.8698 0.347178,-4.88868 1.916751,-9.94951 1.508585,-15.05263 1.829664,-5.92213 8.397374,-11.8368 3.847707,-18.23955 -0.21181,-6.16248 -10.879284,-7.40471 -8.098862,-13.15122 4.232502,-3.78744 4.785675,-10.23618 9.589047,-13.47314 6.026286,-3.6409 14.238944,-4.88602 18.068584,-11.3566 2.985872,-7.05356 1.525793,-14.92357 2.205445,-22.36898 0.14898,-6.26023 0.280404,-12.52292 0.657225,-18.77458 3.493093,-5.48833 9.167705,0.31919 13.712004,0.0718 8.139326,-0.0907 15.560916,-4.00731 23.327306,-5.93084 9.54686,-3.56064 18.763603,-7.95294 28.298283,-11.53514 z m 61.71263,313.17374 0.15706,0.14662 z"
       id="path874"
       inkscape:connector-curvature="0"
       sodipodi:nodetypes="ccccccccccccccccccccccccccccccccccccccccccccccccccccccccccccccccccccccccccccccccccccccccccccccccccccccc" />
  </g>
</svg>
