<svg xmlns="http://www.w3.org/2000/svg" width="408.95" height="364.383"><path d="m267.977 155.942-.146.01c-2.478.206-3.848.91-5.636.9h-.054c-.652.007-1.193.032-1.786.136-.594.104-1.4.22-2.259 1.134-1.3 1.384-1.326 2.32-1.664 3.64-.338 1.321-.6 2.847-.74 4.43-.175 1.982-.298 2.985-.209 4.131.089 1.146.758 2.393 1.149 2.94.214.3 1.808 3.838 2.535 6.545h.005c.527 1.957.532 1.962.467 3.198-.109 2.073-.595 2.912-2.414 4.078-.55.354-.604.292-.661.283-.056-.01-.42-.147-1.027-.735-.635-.68-1.633-3.666-2.327-6.39l.073.408c-.26-2.375-1.82-4.186-3.163-5.358l-.058-.049-.064-.048c-2.338-1.83-4.803-2.556-6.96-2.657-2.155-.102-3.951.173-6.316.068l-.088-.005h-.088c-5.27.078-10.244.172-11.543.233-.895.042-4.509.144-7.787.21-3.302.065-9.727.21-14.294.32-4.562.11-10.467.246-13.12.307-2.66.061-6.864.164-9.35.224-13.575.326-21.923.519-26.981.623-3.134.064-6.748.159-8.172.219l-1.396.058-.4-.292c-.762-.561-1.14-.939-1.25-1.08-.11-.142-.05-.005-.078-.2-.086-.592-.447-1.776-1.051-2.735-.605-.959-1.495-2.163-3.237-4.53-.958-1.304-2.453-3.037-3.65-4.25l-2.774-2.813-31.274-.034c-16.515-.017-32.966-.066-36.408-.107-3.596-.042-18.85-.09-34.028-.107-11.463-.012-18.368-.007-22.47.03-2.051.017-3.393.042-4.302.082-.455.02-.796.042-1.134.083-.17.02-.334.038-.59.102-.254.064-.597-.057-1.479.827-.836.837-.722 1.07-.822 1.353-.1.283-.163.529-.224.788-.122.52-.219 1.087-.287 1.69-.047.414-.118.878-.185 1.24-.067.363-.213.773-.083.438-.26.67-.265.917-.36 1.407-.095.49-.195 1.065-.292 1.698a77.533 77.533 0 0 0-.511 4.06v.014c-.121 1.325.413 2.818 1.168 3.928.725 1.28 2 2.566 3.329 3.168-.253-.114.26.168.744.564.486.397 1.082.927 1.65 1.475a27.323 27.323 0 0 1 1.514 1.572c.398.455.68.982.501.589.314.687.272.984.117 1.333-.367.83-.64 1.199-3.178 4.137-1.14 1.321-1.87 2.063-2.443 3.344-.573 1.28-.37 2.933-.117 3.805.697 2.398 2.465 4.163 4.847 4.877.944.283 1.196.196 1.733.204.537.007 1.147-.007 1.84-.034 1.385-.055 3.08-.169 4.803-.316 1.724-.147 3.472-.326 4.96-.516 1.486-.19 2.543-.318 3.61-.647 3.403-1.052 6.132-3.627 7.442-6.96.08-.206.285-.456.486-.793.082.12.109.123.195.258.658 1.028 1.474 1.912 2.331 2.72.429.405.857.774 1.31 1.105.451.331.775.66 1.81.92.88.221.974.122 1.333.117.36-.005.754-.025 1.202-.054a82.653 82.653 0 0 0 3.15-.272c2.31-.241 4.746-.552 6.302-.876 3.158-.658 5.268-.855 10.61-.983 6.284 1.595 16.968-.861 18.965.447.857.757 1.876 1.532 3.149 1.937 3.858 1.607 7.52.04 9.086 3.947.363.903.927 2.15 2.01 3.285l.063.068.064.059c.577.538 1.084 1.073 2.039 1.494.954.42 1.701.433 2.477.491.604.046 2.135.27 2.915.438 1.562.336.456-.255 1.436.701 1.306 1.275 1.608 2.112 1.362 5.923-.034.534-.047.558-.073.788-.139.002-.096.01-.326.005l.156.005c-.889-.067-2.013-.436-3.796.064-.891.25-1.94.914-2.57 1.83-.614.894-.851 1.87-.958 2.866-.238 1.79.268 3.064.812 4.312.551 1.263 1.23 2.4 2.025 3.353 2.685 3.218 7.097 4.795 11.753 5.023 4.375.213 8.01-.523 12.299-2.458 2.676-1.207 4.072-1.679 7.134-2.409 3.706-.884 6.345-2.228 9.646-4.876 2.804-2.25 3.073-2.395 6.57-3.553 3.355-1.111 5.512-2.341 8.103-4.619l4.03-3.543c3.374-2.966 5.686-4.551 7.286-5.159 1.599-.607 2.549-.558 4.55.132 1.177.405 1.59.584 2.429 1.216.838.633 2.086 1.812 4.224 3.952l3.733 3.733 5.241 2.706c2.73 1.406 5.348 2.698 6.98 3.251 1.656.561 1.924.772 2.647 1.845.311.462.234.386.2.253-.035-.133.014.109.014.895 0 2.566.855 4.943 2.506 7.018 1.403 1.762 2.693 2.791 5.656 4.473 3.79 2.15 4.593 2.731 15.067 10.643 2.46 1.859 5.037 4.04 5.88 4.896 3.262 3.32 5.997 8.28 6.409 10.63-.03-.166.118 1.12.219 2.52.1 1.4.211 3.178.306 4.979.42 7.959.334 11.279-.555 22.07-.18 2.193-.686 5.615-1.513 10.104-.489 2.658-.524 5.77.01 8.293.267 1.264.811 3.286 1.367 5.241.557 1.955.958 3.449 1.456 4.61.654 1.527 1.393 2.225 2.35 3.182 1.032 1.032 2.129 1.889 3.48 2.385 1.099.403 2.27.318 3.387.18-.48.43-.992.872-1.392 1.256-.652.626-.973.791-1.615 1.78-1.116 1.72-1.62 3.96-1.178 5.933a8.97 8.97 0 0 0 1.26 2.935c.632.95 1.427 1.871 2.628 3.212 2.664 2.973 3.534 4.529 6.152 11.048 1.963 4.886 3.23 6.935 5.733 9.295 1.867 1.762 3.545 3.102 5.874 3.538-.706-.132.427.22.74.429.901.598 1.724 1.049 2.847 1.387 1.062.32 2.708.41 3.996-.17 1.288-.582 2.13-1.402 3.256-2.497.212-.207.36-.301.569-.492.015 2.111.022 4.243.175 6.78.108 1.793.24 3.516.38 4.93.14 1.414.162 2.228.525 3.387.549 1.749 1.431 2.418 2.395 3.26.963.843 1.956 1.583 3.372 2.03.6.19 1.191.455 2.225.404.87-.043 1.351-.311 1.834-.535-.043.531-.136 1.31-.38 2.793-1.164 7.106-.82 9.528 2.531 16.844v.005c.912 1.989 1.714 3.725 2.58 4.984 1.96 2.852 4.773 5.22 10.259 8.984 5.767 3.957 8.56 5.931 11.296 7.256 2.736 1.325 5.089 1.781 9.378 2.696 1.37.292 2.707.603 3.728.862.51.129.943.244 1.241.33.298.088.638.266.195.04.242.123 1.239 1.11 1.391 1.41.097.19.199.364-.063 1.582-.123.574-.231 1.362-.146 2.127.086.766.277 1.37.526 2.185.772 2.532.66 3.238-.745 5.271-1.129 1.634-1.65 3.114-1.79 5.154-.046.658-.092.967-.122 1.144-.09.02-.24.073-.988.204-3.225.563-6.151 2.377-7.14 5.373-.404 1.225-.394 2.76.088 4.025.481 1.264 1.26 2.27 2.224 3.3 2.534 2.706 6.374 3.772 10.454 4.195v.005h.005v-.005c.012 0 .022.007.034.01h.005c2.714.277 5.298.066 7.986-.643 1.09-.287 2.56-.669 3.237-.842.198-.05 1.83-.248 3.922-.277 2.365-.034 12.564-4.906 14.594-5.6 4.878-2.975-6.173 8.139-6.505 9.245-.036.187.155.424.156.647v.39c-.21-.198-.409-.398-.653-.584a4.943 4.943 0 0 0-.71-.468c-.304-.162-.648-.428-1.63-.428-.927 0-1.11.2-1.33.297a4.62 4.62 0 0 0-.505.263c-.28.165-.522.33-.789.52-.534.38-1.132.84-1.727 1.324a36.62 36.62 0 0 0-1.675 1.44 13.24 13.24 0 0 0-.69.677c-.218.232-.4.254-.804 1.14-.235.515-.462 1.722-.224 2.579.239.857.565 1.246.862 1.674.235.339.472.647.725.934.253.287.251.466 1.134.983h.005v.005c.832.487 2.576.69 3.62.283 1.045-.408 1.653-.934 2.492-1.616 1.158-.94 1.938-1.592 2.565-2.23.565-.574 1.187-1.396 1.329-2.759l1.773-.416 2.164-.63c2.064-.714 4.37-1.658 6.127-2.735 1.034-.634 3.152-1.871 4.585-2.677 5.4-3.038 11.913-8.767 14.926-13.437.763-1.183 1.58-2.64 2.268-3.986.688-1.345 1.192-2.114 1.514-3.596.138-.638.12-1.534-.059-2.21-.179-.676-.428-1.192-.734-1.81-.258-.52-.541-1-.842-1.441-.301-.44-.295-.738-1.363-1.44-.359-.236-1.375-.72-2.297-.687-.923.034-1.338.256-1.83.438-.078.03-.172.12-.253.151.49-.753 1.246-1.7 1.552-2.321 2.262-4.595 3.4-7.609 3.976-10.785.389-2.14.617-2.85 1.592-4.969 1.983-4.31 2.33-5.838 2.555-12.055.11-3.02.325-6.518.384-7.003.176-1.44.226-3.502.224-5.553 0-1.026-.02-2.021-.058-2.876-.037-.856-.047-1.44-.214-2.23-.66-3.12-6.694-36.124-7.106-38.831-.718-4.72-1.501-7.349-3.09-9.987-.436-.724-1.342-2.06-2.73-4.098a1004.145 1004.145 0 0 0-4.994-7.251c-6.964-10.026-10.272-14.763-12.04-17.69-1.768-2.928-2.06-4.023-3.329-7.642-2.209-6.303-2.877-7.92-5.061-12.288-2.187-4.374-3.403-7.343-4.453-10.8-1.294-4.256-3.382-12.92-3.884-16.002-.84-5.153-1.827-7.703-4.507-11.66-6.983-10.313-8.928-13.345-12.347-19.268-2.081-3.606-4.375-7.777-4.847-8.746-.138-.283-1.24-2.85-2.599-6.151-1.36-3.3-3.081-7.542-4.837-11.924-3.529-8.802-7.407-18.178-8.785-21.2-2.228-4.885-3.215-7.544-5.665-15.3-.536-1.7-.828-2.638-1.197-3.475-.185-.42-.4-.86-.827-1.339-.427-.478-1.096-.87-1.475-1.017-1.042-.406-.957-.24-1.329-.282-.37-.043-.81-.08-1.314-.117a100.357 100.357 0 0 0-3.616-.195c-2.544-.094-3.937-.193-4.779-.35-.841-.157-1.258-.332-2.394-.905-.496-.25-1.734-1.012-2.244-1.387a22.028 22.028 0 0 0-2.925-1.825l-.025-.015c-.329-.175-.674-.495-1.42-1.061-.76-.576-2.137-1.349-3.734-1.373zm-.297 7.655-.098.03c.055-.018-.015-.001.034-.016.018-.005.046-.007.064-.015zm-.185.039c.714.578 1.422 1.1 2.234 1.543a24.395 24.395 0 0 1 1.869 1.182c2.687 2.17 6.308 3.7 9.704 3.986.97.082 2.982.163 4.847.214.654.018 1.115.051 1.596.083.079.22.128.34.22.608a194.102 194.102 0 0 1 1.805 5.631c.935 3.048 2.136 6.042 4.41 11.062 1.275 2.817 5.288 12.502 8.77 21.2 1.748 4.37 3.463 8.597 4.827 11.9 1.364 3.301 2.25 5.437 2.77 6.472 1.427 2.847 6.842 12.326 9.163 16.094.849 1.378 3.037 4.669 5.028 7.583a3546.13 3546.13 0 0 1 4.166 6.107c1.424 2.106 1.81 3.214 2.545 7.641.625 3.77 2.714 12.313 4.069 16.742 1.248 4.081 2.273 6.625 4.297 10.673 2.385 4.769 3.233 6.78 5.183 12.332 1.895 5.394 3.13 8.172 4.96 10.98.83 1.274 4.984 7.294 9.558 13.884 2.282 3.288 4.456 6.443 6.122 8.873 1.666 2.429 2.95 4.34 3.008 4.433 1.363 2.206 1.714 3.314 2.38 7.729.371 2.466 1.953 11.234 3.572 19.88 1.991 10.638 2.908 15.387 3.28 18.095.372 2.708.247 3.406.17 6.755-.11 4.768-.233 8.421-.374 10.999-.142 2.578-.448 4.408-.375 4.166-.056.187-.83 2.271-1.499 3.879-.935 2.245-1.544 4.13-1.952 6.122-.63 3.086-1.272 5.019-2.633 7.904-1.243 2.636-1.733 3.389-4.876 7.534-1.291 1.702-2.585 3.51-3.275 4.745-1.358 2.427-3.518 4.489-5.977 5.718-1.04.52-4.19 2.206-7.314 3.898-3.477 1.884-5.37 2.836-6.59 3.251-1.22.416-1.908.451-3.86.438-1.622-.01-3.097.377-4.443.604a15.743 15.743 0 0 0-2.998.409c-3.352.815-3.551.855-5.246.832-2.376-.032-1.889.028-4.083-.526h-.005c-1.691-.426-2.12-.777-2.546-1.114a8.927 8.927 0 0 0 2.448-.4c1.173-.348 2.636-1.427 3.417-2.491.402-.548.909-1.268 1.168-2.185.259-.917.263-1.598.321-2.653l.073-1.328.73-1.066c1.132-1.65 1.697-3.004 2.01-4.799.395-2.265.258-4.178-.457-6.565-.36-1.203-.301-.35-.083-1.752.329-2.113-.055-4.31-1.08-6.06-.637-1.085-1.432-1.9-2.307-2.686-.875-.785-1.667-1.466-2.96-1.951-.873-.328-1.388-.405-2.53-.677-1.142-.271-2.57-.596-4.035-.91-7.646-1.637-6.81-1.285-16.371-7.84-4.437-3.041-6.763-4.76-8.177-6.259-1.413-1.498-2.18-2.943-3.616-6.103-2.083-4.59-2.228-5.084-2.083-7.835.06-1.119.273-3.009.404-3.733.299-1.645.48-3.148.526-4.477.046-1.33.055-2.42-.443-3.724-.733-1.92-2.361-3.445-4.36-4-1.484-.412-3.402-.15-4.853.496-.119-.072-.126-.075-.292-.219-.294-.255-.501-.77-.253-.14.206.52.054.16.005-.171-.049-.332-.106-.82-.165-1.397a123.076 123.076 0 0 1-.346-4.239c-.207-3.143-.324-6.708-.267-7.738.072-1.324.15-2.026.039-2.969-.112-.942-.54-1.81-.838-2.355-.71-1.307-1.609-2.517-3.129-3.207-1.52-.691-3.41-.417-4.706.287-.99.537-1.105.77-1.713 1.294a58.075 58.075 0 0 0-2.025 1.84 46.02 46.02 0 0 1-1.693 1.533c-.088-.06-.062-.028-.17-.112-.957-.744-1.72-1.093-2.833-1.397-.21-.057-1.825-.997-3.373-2.672-1.508-1.63-1.698-2.014-3.494-6.58-2.25-5.719-4.141-8.964-7.261-12.332-.738-.796-1.287-1.531-1.597-2.049-.31-.517-.275-.872-.277-.374-.003.715.262-.445.72-.857.45-.405 1.773-1.561 2.837-2.472 2.562-2.192 5.186-5.08 6.541-7.641l.015-.03.015-.028c.83-1.655 2.01-3.99 2.472-6.62.231-1.314.302-2.767-.219-4.272-.52-1.505-1.784-2.935-3.397-3.68l-.063-.034-.068-.025c-1.554-.626-3.093-.882-4.312-.73-1.119.14-1.9.199-3.169 1.198-1.973 1.552-2.891 3.707-3.46 6.146-.262 1.124-.754 2.262-1.255 3.057-.502.794-1.127 1.146-.813 1.027-.007.002-.1.186-.871-.667-.45-.498-.465-.513-.618-.852-.154-.339-.417-1.128-.842-2.623-2.214-7.79-2.153-6.669-.74-14.742.362-2.07.746-4.87.89-6.56.978-11.466 1.063-15.565.536-25.098-.368-6.638-.79-8.838-2.224-11.87-.591-1.249-1.624-3.002-2.55-4.404-2.67-4.041-5.997-7.132-13.715-12.95-7.219-5.444-9.291-6.873-13.126-9.068-2.635-1.508-3.223-2.081-4.01-3.528-.4-.735-.227-.043-.253-1.616-.014-.883-.024-1.54-.19-2.321-.165-.782-.528-1.51-.842-2.04-.707-1.194-1.538-2.047-2.506-2.958-1.29-1.214-2.613-2.02-4.117-2.497-1.465-.465-2.629-1.007-7.71-3.674l-2.87-1.51-3.685-3.586c-2.188-2.132-3.53-3.412-4.954-4.404-1.425-.992-2.843-1.548-4.512-2.078h-.005c-2.853-.905-5.701-.917-8.453.005-3.548 1.187-6.758 3.54-12.488 8.696-3.852 3.466-4.422 3.842-7.374 4.726-3.254.975-5.814 2.36-8.74 4.697-3.071 2.453-3.757 2.798-7.344 3.674-2.909.71-4.457 1.256-8.6 3.037-2.445 1.051-4.415 1.456-7.13 1.465-2.694.007-3.416-.143-5.348-1.061-1.064-.506-1.07-.828-1.28-1.154 1.472-.232 2.864-.735 3.825-1.786.702-.767 1.493-1.943 1.791-3.236.298-1.293.297-2.52.302-4.463.006-2.257-.047-3.9-.526-5.514-.479-1.615-1.437-2.943-2.526-4.108-.786-.84-1.334-1.477-2.321-2.18-1.009-.718-1.87-.936-2.915-1.192-9.877-2.187-5.52-8.5-15.983-9.291h-.01l-.004-.005c-1.48-.1-2.109-.224-2.21-.263-.101-.038-.143-.036-.813-.73-.888-.92-1.896-1.808-3.241-2.273-6.172-.312-12.75.403-18.43.263-5.912-.098-8.834.119-13.837 1.017-1.817.327-4.322.671-5.051.726-1.12.083-2.483.22-3.344.35-.751.113-.198.075.04.2.298.157-.167-.127-.643-.638a26.265 26.265 0 0 1-1.757-2.151c-1.093-1.47-2.19-2.645-3.738-3.378-1.548-.732-3.708-.625-5.163.263-1.261.769-1.813 1.58-2.54 2.58-.729.999-1.414 2.134-1.953 3.304-1.073 2.335-1.32 2.516-2.88 2.915-.027.007-1.124.198-2.351.34a143.536 143.536 0 0 1-8.128.697c1.548-1.765 2.696-3.166 3.485-4.55.828-1.455 1.259-3.05 1.255-4.517-.004-2.171-.88-4.289-2.297-6.147-.871-1.143-2.046-2.196-3.333-3.324a39.444 39.444 0 0 0-1.87-1.547 8.468 8.468 0 0 0-1.518-.969c-.187-.368-.033.059-.034.054l.005-.068v-.005c.002-.051.02-.554.127-1.655.114-1.166.435-3.045.564-3.538.096-.366.17-.727.244-1.085.309-.005.386-.015.798-.02 2.42-.03 6.71-.041 14.133-.034 14.847.015 42.26.1 92.624.277l15.004.054.974 1.027c.85.896 2.48 2.876 3.314 4.034 1.157 1.607 1.777 2.491 1.976 2.818.199.327-.073-.57-.073-.506.004 2.037.919 3.204 1.903 4.39a13.935 13.935 0 0 0 3.664 3.105l1.709 1.002 5.397-.15a2765.82 2765.82 0 0 1 17.554-.434c2.779-.06 6.798-.157 8.945-.214 2.126-.056 6.19-.149 9.014-.209 2.837-.06 6.803-.154 8.838-.21 2.009-.053 6.03-.147 8.91-.209 2.897-.061 6.767-.155 8.634-.209 1.816-.053 6.22-.149 9.734-.214 3.535-.066 7.251-.157 8.473-.21.939-.04 5.549-.143 9.962-.223 1.986-.036 3.663-.308 4.901-.268 1.236.04 1.881.201 2.706.974h.005c.687.698 1.027 1.115.954.997-.078-.126-.136-.482-.068.102v.02c.414 3.356 1.594 6.822 4.137 9.739l.053.063.054.054c1.71 1.761 3.851 2.909 6.049 3.085 1.297.104 2.858-.19 4.132-.788 3.918-1.837 6.561-5.572 7.14-9.924.235-1.774.154-2.976-.59-5.854-.918-3.557-2.075-6.87-3.435-9.082-.394-.639-.3-.33-.04-1.79l.026-.137.01-.131c.101-1.176.255-2.165.404-2.867 1.405-.135 2.733-.41 3.82-.778zm-10.099 2.866c-.002.013.002.028 0 .04-.007.085-.026.141-.034.228zm-163.864 29.75.078.128c-.006-.01-.023-.015-.03-.025-.025-.04-.02-.062-.048-.103zm237.513 274.501c-.68.1-1.398.269-2.404.526-2.353.601-3.69.95-4.692 1.294-.5.173-.934.326-1.484.696-.55.371-1.221 1.218-1.436 1.893-.45 1.42-.242 2.442.141 3.397-.22-.505-.376-1.035-.934-1.474-.805-.633-1.684-.787-2.278-.828-.593-.04-1.05.002-1.567.044-2.66.21-6.406.418-7.482 2.733-1.894 1.427 2.201 6.192-2.747 2.666-.843-.54-1.447-.864-2.383-.951a42.808 42.808 0 0 0-2.302-.156c-2.101-.326-3.712-.406-4.787 1.685a6.261 6.261 0 0 0-.57 1.82c-.1.6-.143 1.196-.057 1.893.085.696.179 1.657 1.343 2.623 1.05.872 1.133.622 1.42.7.29.08.562.135.862.19.602.113 1.297.21 2.035.283 2.358.165 1.528.69 4.132.496.833-.138 1.641-.313 2.57-1.339.685-.757.259-2.783.384-3.34.038-3.067 1.465-.622 3.445.95.406-.047.619-.043 1.164-.111 3.094-.39 4.368-.342 6.093-1.076.862-.367 2.073-1.633 2.297-2.71.223-1.078.05-1.52.015-1.903a11.26 11.26 0 0 0-.18-1.178c.09.16.125.33.224.491.245.403.485.92 1.362 1.485.877.565 2.272.569 2.862.404-.022.007 1.91-.497 3.752-.964 1.68-.425 2.803-.726 3.743-1.095.47-.184.902-.361 1.45-.788.548-.428 1.353-1.46 1.353-2.682 0-1.353-.309-1.87-.608-2.633a8.888 8.888 0 0 0-.521-1.124c-.213-.38-.033-.785-1.504-1.572-1.26-.674-2.03-.446-2.71-.346z" style="color:#000;font-style:normal;font-variant:normal;font-weight:400;font-stretch:normal;font-size:medium;line-height:normal;font-family:sans-serif;font-variant-ligatures:normal;font-variant-position:normal;font-variant-caps:normal;font-variant-numeric:normal;font-variant-alternates:normal;font-feature-settings:normal;text-indent:0;text-align:start;text-decoration:none;text-decoration-line:none;text-decoration-style:solid;text-decoration-color:#000;letter-spacing:normal;word-spacing:normal;text-transform:none;writing-mode:lr-tb;direction:ltr;text-orientation:mixed;dominant-baseline:auto;baseline-shift:baseline;text-anchor:start;white-space:normal;shape-padding:0;clip-rule:nonzero;display:inline;overflow:visible;visibility:visible;opacity:1;isolation:auto;mix-blend-mode:normal;color-interpolation:sRGB;color-interpolation-filters:linearRGB;solid-color:#000;solid-opacity:1;vector-effect:none;fill:#444;fill-opacity:1;fill-rule:nonzero;stroke:none;stroke-width:5.93356;stroke-linecap:butt;stroke-linejoin:miter;stroke-miterlimit:4;stroke-dasharray:none;stroke-dashoffset:0;stroke-opacity:1;color-rendering:auto;image-rendering:auto;shape-rendering:auto;text-rendering:auto;enable-background:accumulate" transform="translate(13.003 -145.941)"/></svg>