<?xml version="1.0" encoding="UTF-8" standalone="no"?>
<svg
   xmlns:dc="http://purl.org/dc/elements/1.1/"
   xmlns:cc="http://creativecommons.org/ns#"
   xmlns:rdf="http://www.w3.org/1999/02/22-rdf-syntax-ns#"
   xmlns:svg="http://www.w3.org/2000/svg"
   xmlns="http://www.w3.org/2000/svg"
   xmlns:sodipodi="http://sodipodi.sourceforge.net/DTD/sodipodi-0.dtd"
   xmlns:inkscape="http://www.inkscape.org/namespaces/inkscape"
   width="513.48083"
   height="327.29288"
   viewBox="0 0 513.48084 327.29287"
   version="1.1"
   id="svg2216"
   inkscape:version="1.0.1 (3bc2e813f5, 2020-09-07)"
   sodipodi:docname="iowa-thick-outline-444444.svg">
  <defs
     id="defs2210" />
  <sodipodi:namedview
     id="base"
     pagecolor="#ffffff"
     bordercolor="#666666"
     borderopacity="1.0"
     inkscape:pageopacity="0.0"
     inkscape:pageshadow="2"
     inkscape:zoom="0.98994949"
     inkscape:cx="447.27801"
     inkscape:cy="154.13856"
     inkscape:document-units="px"
     inkscape:current-layer="layer1"
     showgrid="false"
     units="px"
     inkscape:window-width="1366"
     inkscape:window-height="705"
     inkscape:window-x="-8"
     inkscape:window-y="-8"
     inkscape:window-maximized="1"
     fit-margin-top="10"
     fit-margin-left="10"
     fit-margin-bottom="20"
     fit-margin-right="10"
     inkscape:showpageshadow="false"
     inkscape:document-rotation="0" />
  <metadata
     id="metadata2213">
    <rdf:RDF>
      <cc:Work
         rdf:about="">
        <dc:format>image/svg+xml</dc:format>
        <dc:type
           rdf:resource="http://purl.org/dc/dcmitype/StillImage" />
        <dc:title></dc:title>
      </cc:Work>
    </rdf:RDF>
  </metadata>
  <g
     inkscape:label="Layer 1"
     inkscape:groupmode="layer"
     id="layer1"
     transform="translate(17.339844,-150.378)">
    <text
       xml:space="preserve"
       style="font-style:normal;font-variant:normal;font-weight:normal;font-stretch:normal;font-size:19.7556px;line-height:1.25;font-family:Pacifico;-inkscape-font-specification:Pacifico;font-variant-ligatures:normal;font-variant-position:normal;font-variant-caps:normal;font-variant-numeric:normal;font-variant-alternates:normal;font-feature-settings:normal;text-indent:0;text-align:start;text-decoration:none;text-decoration-line:none;text-decoration-style:solid;text-decoration-color:#000000;letter-spacing:0px;word-spacing:0px;text-transform:none;writing-mode:lr-tb;direction:ltr;text-orientation:mixed;dominant-baseline:auto;baseline-shift:baseline;text-anchor:start;white-space:normal;shape-padding:0;opacity:1;vector-effect:none;fill:#646464;fill-opacity:1;stroke:none;stroke-width:0.529167;stroke-linecap:butt;stroke-linejoin:miter;stroke-miterlimit:4;stroke-dasharray:none;stroke-dashoffset:0;stroke-opacity:1"
       x="197.2449"
       y="175.12508"
       id="text1039" />
    <path
       style="color:#000000;font-style:normal;font-variant:normal;font-weight:normal;font-stretch:normal;font-size:medium;line-height:normal;font-family:sans-serif;font-variant-ligatures:normal;font-variant-position:normal;font-variant-caps:normal;font-variant-numeric:normal;font-variant-alternates:normal;font-feature-settings:normal;text-indent:0;text-align:start;text-decoration:none;text-decoration-line:none;text-decoration-style:solid;text-decoration-color:#000000;letter-spacing:normal;word-spacing:normal;text-transform:none;writing-mode:lr-tb;direction:ltr;text-orientation:mixed;dominant-baseline:auto;baseline-shift:baseline;text-anchor:start;white-space:normal;shape-padding:0;clip-rule:nonzero;display:inline;overflow:visible;visibility:visible;opacity:1;isolation:auto;mix-blend-mode:normal;color-interpolation:sRGB;color-interpolation-filters:linearRGB;solid-color:#000000;solid-opacity:1;vector-effect:none;fill:#444444;fill-opacity:1;fill-rule:nonzero;stroke:none;stroke-width:7.28629;stroke-linecap:butt;stroke-linejoin:miter;stroke-miterlimit:4;stroke-dasharray:none;stroke-dashoffset:0;stroke-opacity:1;color-rendering:auto;image-rendering:auto;shape-rendering:auto;text-rendering:auto;enable-background:accumulate"
       d="m 198.87265,160.38127 -206.2124938,0.022 0.4840796,4.07163 c 0.1782639,1.50485 0.240171,2.67575 0.5163515,4.46967 l -0.043029,-0.54322 c 0.00661,2.23722 1.1510852,3.6057 1.780337,4.44277 0.622876,0.82855 0.9458837,1.31453 1.0434601,1.58133 0.9721808,2.87752 0.9596675,2.36786 0.5593808,4.18459 -0.3931445,1.78448 -0.652958,2.98801 -0.666954,4.34595 -0.01399,1.35793 0.3937721,2.72388 0.8336925,3.71665 0.7225614,1.63063 1.9247576,3.45085 3.27560467,5.45397 1.47340853,2.18484 2.14993993,3.2431 2.38274703,3.72202 0.232807,0.47896 0.2581124,0.64964 0.5163514,2.02777 0.2534777,1.35273 0.2716725,1.6079 0.1290879,2.27516 -0.1425846,0.6673 -0.6464883,1.97662 -1.7534434,4.39439 -1.81213319,3.95789 -2.21111233,5.43863 -2.7861467,10.82724 -0.1609199,1.50802 -0.4778906,2.9006 -1.0327029,4.45351 -0.5547672,1.55286 -1.6896034,4.92115 -2.5763788,7.64308 -0.4252982,1.30547 -0.8440472,2.51825 -1.1617908,3.37242 -0.1588711,0.4271 -0.2964852,0.77279 -0.3711276,0.94665 -0.03732,0.087 -0.065977,0.13438 -0.032273,0.0699 0.016854,-0.0322 0.044891,-0.0914 0.1452229,-0.24206 0.1003346,-0.15064 0.072551,-0.39091 1.0380815,-1.0058 -1.2025487,0.76599 -1.3185441,1.39583 -1.473753,1.76419 -0.1552084,0.36838 -0.2098866,0.59822 -0.2581758,0.8122 -0.096576,0.4279 -0.1329185,0.75927 -0.1667388,1.11336 -0.067638,0.70819 -0.091261,1.46644 -0.091437,2.23753 -1.752e-4,0.77111 0.024124,1.52928 0.091437,2.23752 0.033655,0.35412 0.070425,0.68018 0.1667388,1.10802 0.048157,0.21398 0.1033998,0.44946 0.2581758,0.81754 0.154776,0.36811 0.2637964,0.99198 1.4629958,1.75882 -0.9527153,-0.6096 -0.83661,-0.76431 -0.8821004,-0.87133 0.3832735,1.12086 0.8584234,1.94413 1.5705691,3.06047 0.780868,1.22404 1.7994557,2.67811 3.0658367,4.38359 2.29726289,3.09384 5.9427071,10.21178 7.3203582,14.39332 0.898134,2.72567 0.8471961,2.36789 0.8498283,4.6848 0.00598,4.12724 0.7988448,7.01286 3.2971194,12.00516 1.993218,3.98299 1.799081,3.32619 2.162222,5.95418 0.929369,6.72584 2.092702,9.25371 7.47096,15.64653 5.225965,6.2118 5.553038,6.61538 6.50818,8.55207 1.031746,2.09204 1.084633,2.36076 2.339718,8.7511 0.448843,2.28527 1.044154,5.17764 1.355423,6.5727 0.41137,1.84341 0.411986,1.90047 0.252797,4.1093 -0.317843,4.40934 -0.08808,6.34022 1.473753,11.63405 2.184789,7.40541 3.608159,10.07802 7.691486,14.60305 1.99723,2.21329 2.951616,4.07579 3.442345,6.49207 0.315393,1.55318 0.894299,3.31225 1.543674,4.79237 1.756809,4.00433 1.870384,4.92145 1.608221,11.69323 -0.08876,2.29155 0.137804,3.84306 1.156413,7.36876 0.932883,3.22895 1.031645,3.83166 1.360799,7.88512 0.330779,4.07317 0.640337,5.87563 1.462996,8.53053 1.273667,4.11038 1.243496,3.92868 0.451809,9.29973 -1.284782,8.71698 -1.62,10.83779 -1.376937,12.98408 0.358364,3.16279 1.867834,5.70762 3.732791,8.15405 1.869223,2.45197 4.631053,4.50229 7.433308,5.88963 l 2.210631,1.09726 38.95764,0.16661 c 20.98183,0.0892 84.83605,0.17982 141.93749,0.1991 92.23945,0.0322 104.51534,-1.4e-4 110.85421,-0.39265 1.84342,-0.11428 3.67384,-0.20516 5.10973,-0.25803 1.4359,-0.0531 2.87783,-0.0165 2.4688,-0.0537 -0.28266,-0.0248 0.41804,0.0878 1.08111,0.28508 0.66311,0.19717 1.46556,0.47209 2.15684,0.74225 l 2.22141,0.86595 3.00665,2.94213 c 1.86033,1.82087 4.21398,4.37241 4.69021,4.97526 0.70045,0.88678 1.84375,2.08573 2.89909,3.21645 l -0.0165,0.10767 1.25324,1.26937 c 1.20267,1.2214 1.72356,1.88107 2.86144,2.62478 0.56895,0.37188 1.43303,0.71507 2.15146,0.8068 0.71843,0.0917 1.15018,0.0275 1.45226,0.006 0.86036,-0.0614 2.04943,-0.31634 3.01742,-0.86059 0.96798,-0.54425 1.64139,-1.16943 2.45265,-1.9417 0.86246,-0.82101 1.74158,-2.4632 1.84491,-3.87264 0.10327,-1.40943 -0.15064,-2.52475 -0.48948,-3.96946 -0.3819,-1.6287 0.022,-4.32105 0.10768,-4.49118 0.12778,-0.25391 3.09566,-3.389 3.96409,-3.87264 1.78176,-0.99228 2.47452,-1.2222 5.36791,-1.72117 4.19875,-0.7241 7.66004,-2.94687 10.04195,-6.45439 0.53227,-0.78381 1.15855,-1.85232 1.57596,-3.17877 0.4174,-1.32646 0.7976,-2.99911 1.55442,-6.28228 0.61979,-2.68877 1.88839,-5.21003 4.65793,-8.77261 3.08957,-3.97428 4.47433,-6.17107 5.51312,-8.90707 0.66258,-1.74555 0.91214,-3.40946 0.9036,-6.13167 -0.0193,-5.91127 -1.52405,-10.32651 -5.05592,-14.68911 -3.53322,-4.36426 -3.95285,-4.98947 -4.3406,-5.96495 -0.51374,-1.29245 -0.48661,-3.79398 1.51141,-10.12801 0.81102,-2.57101 -0.008,-1.22018 2.07617,-3.3025 1.60207,-1.60118 1.83788,-1.85267 2.73774,-2.1676 0.89986,-0.31493 3.0506,-0.63449 7.40641,-1.10262 3.98761,-0.42856 8.31108,-0.86736 9.29432,-0.94665 3.03929,-0.24509 6.44696,-0.99147 9.08994,-2.0654 0.87664,-0.35622 1.74268,-0.82102 3.05509,-1.51678 1.31239,-0.6958 2.89421,-1.55927 4.49119,-2.44732 3.19388,-1.77605 6.26145,-3.51554 7.77215,-4.53419 2.47611,-1.66965 4.72647,-4.13352 6.26613,-6.73945 0.96615,-1.63511 1.50819,-3.44488 2.07618,-5.66376 1.31106,-5.12152 1.28416,-4.9931 6.5028,-10.43459 4.00304,-4.17394 6.21244,-8.01708 6.42212,-12.18805 0.0295,-0.0598 0.20241,-0.15394 0.22582,-0.20433 0.2316,-0.49868 0.28538,-0.80094 0.33886,-1.07035 0.10685,-0.53883 0.1366,-0.94885 0.16661,-1.47914 0.06,-1.06054 0.0752,-2.5023 0.0752,-4.64716 0,-2.14485 -0.0165,-3.58665 -0.0752,-4.64716 -0.03,-0.53026 -0.0598,-0.94579 -0.16661,-1.48451 -0.0534,-0.26932 -0.1074,-0.56644 -0.33886,-1.06497 -0.0248,-0.0548 -0.2148,-0.1545 -0.2473,-0.22059 0.0248,0.0666 0.0991,0.19084 0.11291,0.23656 0.0721,0.23683 0.0598,0.26712 0.0592,0.33346 -4.4e-4,-0.20846 -0.18974,-0.39413 -0.20434,-0.60241 -0.26905,-0.53485 -0.63088,-1.32139 -1.95784,-1.76418 1.21485,0.40506 1.59656,1.06335 1.80723,1.39844 0.0716,0.11401 0.062,0.13357 0.10217,0.21508 -0.17101,-1.96662 -0.73765,-3.94479 -1.9148,-5.69598 -1.72422,-2.56501 -3.86379,-4.81 -6.43288,-6.19621 -3.60419,-1.94476 -5.72462,-3.4633 -7.47633,-5.22807 -1.92457,-1.93895 -1.67331,-1.59727 -3.24335,-4.85693 -2.79686,-5.80676 -4.65694,-8.12464 -10.43996,-12.93569 -4.70527,-3.91444 -6.5675,-6.19814 -8.87481,-10.79497 -2.74418,-5.46715 -5.72874,-9.28055 -9.65469,-11.76314 -1.69471,-1.07162 -3.68298,-1.77493 -5.90577,-2.52795 -1.76463,-0.59781 -5.2924,-2.05144 -7.33112,-3.03359 -3.75989,-1.81125 -3.24927,-1.44057 -5.25494,-3.44771 -1.0525,-1.05325 -2.51589,-2.98126 -2.32358,-2.65168 v -0.006 c 0.26988,0.46248 -0.008,-0.035 -0.1936,-0.54326 -0.18534,-0.50826 -0.43057,-1.22644 -0.70998,-2.08155 -0.55876,-1.71018 -1.257,-3.97152 -1.96321,-6.39521 -1.39266,-4.77965 -2.97853,-10.07293 -3.60906,-12.01595 -1.63437,-5.03629 -1.72756,-6.42003 -0.87135,-9.46645 0.14898,-0.52998 2.37483,-5.26058 3.08734,-6.29838 1.86429,-2.71546 2.83668,-5.51645 2.79152,-8.44451 l -0.0537,-3.30787 -3.56605,-4.97526 c -1.5268,-2.13084 -3.45432,-5.0991 -3.92105,-5.94344 -0.36164,-0.65421 -0.72399,-1.28774 -1.03807,-1.8126 -0.31408,-0.52486 -0.2305,-0.58123 -0.96815,-1.44149 h 0.005 c 0.86714,1.01213 0.38973,0.6039 0.30122,0.36574 -0.0887,-0.23821 -0.21948,-0.62339 -0.33349,-1.01656 -0.11401,-0.39315 -0.21453,-0.80306 -0.27968,-1.10263 -0.0631,-0.29025 -0.0565,-0.58145 -0.0592,-0.14513 v -0.005 c 0.005,-0.85001 -0.38075,-1.79253 -0.81755,-2.33435 -0.43767,-0.54293 -0.84866,-0.78786 -1.14566,-0.94665 -0.59399,-0.31757 -0.86907,-0.34437 -1.10263,-0.39264 -0.46705,-0.0967 -0.73498,-0.10796 -1.1295,-0.13439 -0.78904,-0.0532 -1.94346,-0.0903 -3.93181,-0.12365 -3.97668,-0.0667 -11.22604,-0.10823 -24.49979,-0.1399 -26.54749,-0.0633 -77.1666,-0.0702 -173.49948,-0.0592 z m -183.229474,9.62779 c 10.185109,-0.003 24.892822,-2.2e-4 43.018532,0.006 36.251423,0.011 86.187472,0.0322 141.050012,0.0322 79.64303,0 129.53013,0.0138 159.52572,0.0644 14.99779,0.0248 25.02633,0.0589 31.30379,0.10217 3.00607,0.022 5.0525,0.0446 6.45979,0.07 0.25749,0.68645 0.46213,1.37101 0.92514,2.08154 0.18698,0.28698 0.9302,1.53738 1.40918,2.40964 0.79105,1.44039 2.37189,3.77273 3.96409,6.01333 1.37716,1.93804 2.05065,2.95681 2.16221,3.17343 0.11153,0.21673 -0.0419,-0.56771 -0.043,0.13439 -10e-4,0.58905 -0.28227,1.67482 -1.42535,3.34015 -1.556,2.26704 -3.11764,5.50562 -3.93179,8.14331 -1.4478,4.69037 -1.11763,9.40542 0.79603,15.30229 0.53249,1.64095 2.16072,7.07063 3.53917,11.80617 0.69841,2.39934 1.39382,4.69532 1.95244,6.48666 0.2793,0.89565 0.52451,1.66549 0.72612,2.26978 0.20158,0.60428 0.23298,0.81927 0.57013,1.52217 1.31831,2.74776 3.61769,5.18794 6.0241,7.19665 3.15738,2.63557 8.66411,5.06972 14.17816,6.94923 4.12811,1.4071 4.77941,1.7846 6.67493,3.77581 0.86873,0.91258 3.00183,4.11754 4.11467,6.50818 2.17071,4.66314 5.86614,9.0212 10.89179,13.19924 5.18401,4.30973 5.53193,4.70097 7.75065,9.22977 3.12303,6.37462 6.3913,9.86904 12.48926,13.35522 3.11989,1.78366 5.64329,4.53404 5.96492,5.24958 0.0438,0.0975 0.51024,1.96161 0.66696,4.03938 0.15669,2.07777 0.15972,4.55433 -0.0275,6.75021 -0.0807,0.94761 -0.18616,1.93386 -0.28505,2.727 -0.0989,0.79312 -0.26052,1.59557 -0.1936,1.33926 -0.41143,1.57649 -1.10703,2.74691 -3.79735,5.51852 -5.47266,5.6379 -7.21641,8.51476 -8.7457,14.25882 -1.06542,4.00193 -0.94091,3.82004 -3.23258,6.08865 -1.42884,1.41445 -1.97593,1.75854 -7.57315,4.88383 -1.76537,0.98572 -3.52436,1.94864 -4.91611,2.69472 -1.39172,0.74606 -2.67836,1.38044 -2.54408,1.32313 -1.09963,0.4694 -4.43666,1.26654 -6.54046,1.43612 -2.92676,0.23573 -7.09723,0.68056 -10.70353,1.11336 -1.80316,0.21646 -3.45557,0.42903 -4.74936,0.61318 -0.64692,0.092 -1.20119,0.179 -1.66202,0.25804 -0.46084,0.0793 -0.59646,0.0416 -1.39308,0.32273 -2.67134,0.94248 -5.00329,2.80113 -7.23966,5.19579 -1.72095,1.84275 -2.65641,3.42273 -3.44234,5.7928 -1.22179,3.68465 -2.22612,7.74161 -2.49033,10.65512 v 0.006 c -0.16138,1.78212 0.0193,3.4695 0.554,5.24418 0.83448,2.7737 2.18872,4.95232 5.27108,8.6489 2.93249,3.51689 3.30052,4.26291 3.78658,7.58929 0.34222,2.34223 0.34803,2.27484 0.11841,3.56068 -0.29163,1.63197 -1.41031,3.95269 -4.04475,7.28807 -4.17664,5.28805 -6.03939,9.07377 -7.21278,14.73216 -0.33504,1.61575 -0.88502,3.75587 -0.83368,3.59832 -0.16248,0.49897 -2.02377,2.71887 -2.69473,3.06583 0.45514,-0.23545 -0.0471,0.011 -0.50021,0.12916 -0.45301,0.11952 -1.03738,0.24868 -1.55442,0.33884 -5.27321,0.91932 -9.35324,2.92497 -12.7044,6.40061 -2.7496,2.85177 -4.18253,6.07268 -4.3352,9.83758 -0.003,0.0724 0.0193,0.12695 0.0165,0.19911 -0.0165,-0.0193 -0.0275,-0.0295 -0.043,-0.0485 -1.34711,-1.6683 -3.5127,-3.9403 -5.59918,-6.01336 -1.04325,-1.03653 -2.04984,-2.00163 -2.90985,-2.78076 -0.86004,-0.77915 -1.05867,-1.19275 -2.4957,-1.92556 -1.19221,-0.60803 -2.46866,-1.04435 -4.16846,-1.66739 -1.76471,-0.6468 -3.33794,-1.16648 -5.43783,-1.26937 -2.09991,-0.10299 -4.61703,0.073 -9.59554,0.38728 -5.80186,0.36632 -19.64884,0.40898 -147.06335,0.27428 -50.23502,-0.0532 -85.43782,-0.11263 -108.164877,-0.18285 -11.363531,-0.0353 -19.608912,-0.076 -25.048425,-0.11842 -2.719757,-0.022 -4.73857,-0.0416 -6.083265,-0.0644 -0.616948,-0.011 -1.055544,-0.022 -1.376938,-0.0322 0.04048,-0.022 -0.92206,-0.45516 -1.839502,-1.08649 -1.006569,-0.69262 -2.066365,-1.62134 -2.253661,-1.8341 -0.238926,-0.27154 -0.9147,-1.24963 -1.414586,-2.15684 -0.499888,-0.90724 -0.891148,-2.04147 -0.833694,-1.76958 0.134692,0.6373 -6.19e-4,-0.16083 0.188255,-1.80186 0.188861,-1.64104 0.562906,-4.28572 1.17255,-8.39073 0.876809,-5.904 0.718789,-9.01539 -0.68309,-13.52731 -0.76048,-2.44761 -0.860093,-3.03898 -1.183307,-7.01915 -0.334334,-4.11727 -0.646141,-5.92888 -1.581324,-9.20827 -1.114364,-3.90794 -1.084484,-3.63547 -0.774527,-7.68612 0.334078,-4.3663 -0.677085,-8.90914 -2.802285,-13.608 -0.08391,-0.18561 -0.501737,-1.50452 -0.580894,-1.93633 -0.53461,-2.91514 -1.747075,-5.95897 -3.4531,-8.33691 -0.76227,-1.0625 -2.074257,-2.62238 -3.286364,-3.9856 -2.287823,-2.57311 -2.944153,-3.89098 -4.620269,-9.45568 l -1.12414,-3.72205 -0.0054,-4.62563 c -0.0046,-4.93624 -0.137143,-6.15117 -0.962781,-9.50409 -0.43893,-1.78264 -1.07788,-4.83649 -1.355422,-6.47053 -0.597668,-3.51899 -1.219904,-6.18914 -2.770011,-8.98777 -1.550107,-2.79862 -3.787993,-5.51986 -7.643077,-10.09036 -1.979224,-2.34652 -3.084432,-3.76545 -3.65749,-4.69558 -0.573058,-0.93009 -0.716604,-1.35664 -0.989674,-2.55485 -0.253976,-1.11438 -0.566962,-2.93791 -0.623924,-3.46925 -0.311154,-2.90349 -1.13799,-5.24538 -3.248712,-9.38038 -2.117477,-4.14825 -2.162222,-4.25766 -2.162222,-7.87435 0,-2.47086 -0.276118,-4.01421 -1.344665,-7.25043 -1.685341,-5.10436 -5.0043296,-11.89125 -7.8367094,-15.76485 -2.2475389,-3.07382 -3.4556626,-4.8626 -3.9586947,-5.84662 -0.5030318,-0.98401 -0.47092,-0.9953 -0.4787008,-2.08691 0.00145,0.20737 0.2066756,-1.40789 0.8014208,-3.44774 0.594746,-2.03982 1.5108102,-4.7723 2.7054664,-8.05723 1.5333942,-4.21632 2.4330286,-7.85796 2.4365334,-11.05852 0.0016,-1.47404 0.039672,-1.55607 1.7910943,-5.41095 1.713515,-3.77146 2.71503,-6.32121 2.705467,-9.05229 -0.0057,-1.53773 -0.314025,-2.94215 -0.677712,-4.47504 -0.363687,-1.53286 -0.515328,-2.64044 -1.462996,-4.23838 -0.525297,-0.88573 -1.6321378,-2.54422 -2.7753887,-4.22761 -1.0429774,-1.53578 -2.3451332,-3.84512 -2.285931,-3.71129 -0.2594618,-0.58665 -0.1438266,-0.43965 -0.1237095,-0.0537 0.020131,0.38588 -0.021948,0.25088 0.1721171,-0.52172 0.8227801,-3.27582 0.8853691,-5.82268 0.1721172,-8.57898 -0.4213356,-1.6282 -1.2193724,-2.4686 -1.7857155,-3.65747 2.6847845,-0.006 6.4198294,-0.008 11.3328394,-0.011 z m 469.842204,142.7174 c -2.2e-4,0.0669 0.0138,0.0912 -0.0592,0.33347 -0.008,0.03 -0.0625,0.11759 -0.0752,0.15587 0.008,-0.16744 0.13384,-0.32077 0.13439,-0.48945 z m -0.17212,0.57014 c -0.0419,0.11098 -0.0512,0.18864 -0.18286,0.39801 -0.21067,0.33479 -0.59156,0.99385 -1.80723,1.39845 1.34992,-0.45001 1.72544,-1.26282 1.99012,-1.79646 z"
       id="path1243"
       inkscape:connector-curvature="0" />
  </g>
</svg>
